<svg display="none" xmlns="http://www.w3.org/2000/svg">
    
    <!-- Logo -->
    <symbol viewBox="0 0 81 60" id="logo">
        <g clip-path="url(#clip0_10_80)">
        <path d="M80.4347 58.1016C80.4347 58.9759 79.7965 59.5627 79.0411 59.5627V59.5574C78.2642 59.5627 77.6377 58.9759 77.6377 58.1018C77.6377 57.228 78.2642 56.6428 79.0411 56.6428C79.7968 56.6425 80.4347 57.2277 80.4347 58.1016ZM81 58.1016C81 56.9018 80.0736 56.2053 79.0411 56.2053C78.0014 56.2053 77.075 56.9018 77.075 58.1016C77.075 59.3007 78.0017 60 79.0411 60C80.0738 60 81 59.3007 81 58.1016ZM78.7161 58.262H78.9258L79.4119 59.1206H79.9456L79.4073 58.2259C79.6855 58.2059 79.9143 58.0726 79.9143 57.6958C79.9143 57.2277 79.5935 57.0773 79.0501 57.0773H78.2639V59.1206H78.7159V58.262H78.7161ZM78.7161 57.9161V57.4241H79.0305C79.2015 57.4241 79.4345 57.438 79.4345 57.6479C79.4345 57.8762 79.3139 57.9161 79.1123 57.9161H78.7161Z" fill="white"/>
        <path d="M67.8076 47.6492L70.2501 54.3713H65.2895L67.8076 47.6492ZM65.1918 45.0318L59.5631 59.3789H63.5377L64.428 56.8438H71.0892L71.9318 59.3789H76.2466L70.576 45.03L65.1918 45.0318ZM53.8913 59.3842H57.9238V45.0274L53.8906 45.0265L53.8913 59.3842ZM25.8971 45.0265L22.5328 56.4054L19.3099 45.0274L14.9589 45.0265L19.5618 59.3842H25.3712L30.0112 45.0265H25.8971ZM42.1969 48.1528H43.93C46.4444 48.1528 48.0706 49.2884 48.0706 52.2355C48.0706 55.1833 46.4444 56.3191 43.93 56.3191H42.1969V48.1528ZM38.1983 45.0265V59.3842H44.7358C48.2188 59.3842 49.3562 58.8018 50.5859 57.4951C51.4546 56.5776 52.0164 54.5642 52.0164 52.3632C52.0164 50.3445 51.541 48.5451 50.712 47.4238C49.2183 45.4186 47.0667 45.0265 43.8556 45.0265H38.1983ZM0 45.0066V59.3842H4.06659V48.4672L7.21754 48.4681C8.26087 48.4681 9.00458 48.7296 9.507 49.2696C10.1442 49.9524 10.4044 51.0547 10.4044 53.0709V59.3842H14.345V51.4405C14.345 45.771 10.7529 45.0066 7.23828 45.0066H0ZM31.7084 45.0265L31.71 59.3842H35.7406V45.0265H31.7084Z" fill="white"/>
        <path d="M10.8373 16.4388C10.8373 16.4388 16.0238 8.74061 26.3794 7.9442V5.1513C14.9092 6.07802 4.97656 15.8511 4.97656 15.8511C4.97656 15.8511 10.6023 32.2118 26.3794 33.7098V30.7411C14.8014 29.2758 10.8373 16.4388 10.8373 16.4388ZM26.3794 24.8372V27.5559C17.629 25.9865 15.2001 16.8358 15.2001 16.8358C15.2001 16.8358 19.4015 12.1535 26.3794 11.3942V14.3774C26.3741 14.3774 26.3704 14.3758 26.366 14.3758C22.7036 13.9336 19.8426 17.3755 19.8426 17.3755C19.8426 17.3755 21.4462 23.1697 26.3794 24.8372ZM26.3794 -9.53674e-07V5.1513C26.7161 5.12533 27.0528 5.10331 27.3913 5.09172C40.4316 4.64957 48.9283 15.8511 48.9283 15.8511C48.9283 15.8511 39.1696 27.7887 29.0028 27.7887C28.071 27.7887 27.1987 27.7018 26.3794 27.5557V30.7411C27.08 30.8306 27.8064 30.8832 28.5644 30.8832C38.0253 30.8832 44.8672 26.0224 51.4922 20.2695C52.5906 21.1545 57.0875 23.3075 58.0119 24.2499C51.7128 29.5554 37.0322 33.8322 28.7094 33.8322C27.9071 33.8322 27.1367 33.7833 26.3794 33.7098V38.1859H62.3396V-9.53674e-07H26.3794ZM26.3794 11.3942V7.94443C26.7126 7.92101 27.0484 7.90293 27.3913 7.89203C36.7686 7.59573 42.9207 15.9988 42.9207 15.9988C42.9207 15.9988 36.2759 25.2828 29.1512 25.2828C28.1258 25.2828 27.2065 25.1171 26.3791 24.8372V14.3774C30.0297 14.8212 30.7645 16.4435 32.9592 20.1241L37.8405 15.9835C37.8405 15.9835 34.2772 11.2822 28.2706 11.2822C27.6177 11.282 26.9929 11.3281 26.3794 11.3942Z" fill="#77B900"/>
        </g>
    </symbol>

    <!-- Cards -->
    <symbol viewBox="0 0 160 90" id="hdr">
        <g>
            <path d="M6.35388 46.075C6.19763 45.8842 6.05746 45.7104 5.9334 45.5546C6.08294 45.386 6.25391 45.1955 6.44607 44.9845C7.31029 44.0352 8.60244 42.6718 10.3 41.032C13.6962 37.7513 18.7082 33.3712 25.1555 28.9907C38.0563 20.2256 56.6409 11.5 79.5 11.5C103.873 11.5 122.454 20.2359 134.953 28.9791C141.204 33.3519 145.928 37.723 149.085 40.9946C150.662 42.6299 151.847 43.989 152.633 44.934C152.84 45.1823 153.019 45.402 153.17 45.5905C153.057 45.7617 152.926 45.9572 152.776 46.1751C152.132 47.1106 151.145 48.4597 149.786 50.085C147.07 53.3361 142.873 57.6876 136.983 62.044C125.218 70.7453 106.651 79.5 79.5 79.5C54.8747 79.5 36.295 70.7624 23.8626 62.0229C17.6442 57.6515 12.9679 53.282 9.85147 50.012C8.2937 48.3775 7.12711 47.0192 6.35388 46.075Z"  stroke-width="3"/>
            <circle cx="81" cy="45" r="24.5" stroke="white" stroke-width="3" fill="black"/>
            <circle cx="81" cy="45" r="21.5" stroke="#77B900" stroke-width="3"/>
            <circle cx="81" cy="45" r="9.5" stroke="#77B900" stroke-width="5" fill="none"/>
            <circle cx="100" cy="32" r="7" fill="white" stroke="white"/>
        </g>
    </symbol>

    <symbol viewBox="0 0 160 90" id="input">
        <g>
            <path d="M6.35388 46.075C6.19763 45.8842 6.05746 45.7104 5.9334 45.5546C6.08294 45.386 6.25391 45.1955 6.44607 44.9845C7.31029 44.0352 8.60244 42.6718 10.3 41.032C13.6962 37.7513 18.7082 33.3712 25.1555 28.9907C38.0563 20.2256 56.6409 11.5 79.5 11.5C103.873 11.5 122.454 20.2359 134.953 28.9791C141.204 33.3519 145.928 37.723 149.085 40.9946C150.662 42.6299 151.847 43.989 152.633 44.934C152.84 45.1823 153.019 45.402 153.17 45.5905C153.057 45.7617 152.926 45.9572 152.776 46.1751C152.132 47.1106 151.145 48.4597 149.786 50.085C147.07 53.3361 142.873 57.6876 136.983 62.044C125.218 70.7453 106.651 79.5 79.5 79.5C54.8747 79.5 36.295 70.7624 23.8626 62.0229C17.6442 57.6515 12.9679 53.282 9.85147 50.012C8.2937 48.3775 7.12711 47.0192 6.35388 46.075Z" stroke-width="3"/>
            <circle cx="81" cy="45" r="24.5" stroke="white" stroke-width="3" fill="black"/>
            <circle cx="81" cy="45" r="21.5" stroke="#77B900" stroke-width="3"/>
            <path d="M81 28.5V45H94" stroke="#77B900" stroke-width="4" stroke-linecap="round" stroke-linejoin="round" fill="none"/>
        </g>
    </symbol>

    <symbol viewBox="0 0 160 90" id="refresh">
        <g>
            <path d="M6.35388 46.075C6.19763 45.8842 6.05746 45.7104 5.9334 45.5546C6.08294 45.386 6.25391 45.1955 6.44607 44.9845C7.31029 44.0352 8.60244 42.6718 10.3 41.032C13.6962 37.7513 18.7082 33.3712 25.1555 28.9907C38.0563 20.2256 56.6409 11.5 79.5 11.5C103.873 11.5 122.454 20.2359 134.953 28.9791C141.204 33.3519 145.928 37.723 149.085 40.9946C150.662 42.6299 151.847 43.989 152.633 44.934C152.84 45.1823 153.019 45.402 153.17 45.5905C153.057 45.7617 152.926 45.9572 152.776 46.1751C152.132 47.1106 151.145 48.4597 149.786 50.085C147.07 53.3361 142.873 57.6876 136.983 62.044C125.218 70.7453 106.651 79.5 79.5 79.5C54.8747 79.5 36.295 70.7624 23.8626 62.0229C17.6442 57.6515 12.9679 53.282 9.85147 50.012C8.2937 48.3775 7.12711 47.0192 6.35388 46.075Z" stroke-width="3"/>
            <path d="M115.967 41.7183C114.915 29.459 105.088 19.7243 92.7893 18.7945C100.688 23.0493 106.058 31.3922 106.058 40.9915C106.058 41.2377 106.027 41.4745 106.02 41.7183H97.9286L110.419 57.7938L123.91 41.7183H115.967Z" fill="white" stroke="white"/>
            <path d="M54.6808 51.0085C54.6808 50.7355 54.7112 50.4707 54.7205 50.2012H63.0713L50.5823 34.1257L37.0898 50.2012H44.7653C45.7827 62.4978 55.6235 72.2757 67.947 73.2067C60.0498 68.9495 54.6808 60.6078 54.6808 51.0085Z" fill="white" stroke="white"/>
            <path d="M88 30H71V47H76L74.5 65.25L90 44H78L88 30Z" fill="#77B900" stroke="#77B900"/>
        </g>
    </symbol>

    <symbol viewBox="0 0 160 90" id="wideColor">
        <g>
            <path d="M6.35388 46.075C6.19763 45.8842 6.05746 45.7104 5.9334 45.5546C6.08294 45.386 6.25391 45.1955 6.44607 44.9845C7.31029 44.0352 8.60244 42.6718 10.3 41.032C13.6962 37.7513 18.7082 33.3712 25.1555 28.9907C38.0563 20.2256 56.6409 11.5 79.5 11.5C103.873 11.5 122.454 20.2359 134.953 28.9791C141.204 33.3519 145.928 37.723 149.085 40.9946C150.662 42.6299 151.847 43.989 152.633 44.934C152.84 45.1823 153.019 45.402 153.17 45.5905C153.057 45.7617 152.926 45.9572 152.776 46.1751C152.132 47.1106 151.145 48.4597 149.786 50.085C147.07 53.3361 142.873 57.6876 136.983 62.044C125.218 70.7453 106.651 79.5 79.5 79.5C54.8747 79.5 36.295 70.7624 23.8626 62.0229C17.6442 57.6515 12.9679 53.282 9.85147 50.012C8.2937 48.3775 7.12711 47.0192 6.35388 46.075Z"  stroke-width="3"/>
            <circle cx="79.5" cy="37.5" r="11.5" fill="#77B900" fill-opacity="0.75" stroke="white" stroke-width="2"/>
            <circle cx="70.5" cy="52.5" r="11.5" fill="#77B900" fill-opacity="0.5" stroke="white" stroke-width="2"/>
            <circle cx="88.5" cy="52.5" r="11.5" fill="white" fill-opacity="0.45" stroke="white" stroke-width="2"/>
        </g>
    </symbol>

    <!-- social -->
    <symbol viewBox="0 0 48 48" id="instagram">
        <g>
            <path d="M35.8157 12.9348C35.526 12.6342 35.1777 12.3962 34.7923 12.2355C34.407 12.0747 33.9928 11.9947 33.5753 12.0003H15.1747C14.7573 11.9948 14.3432 12.0749 13.958 12.2357C13.5728 12.3964 13.2246 12.6344 12.9348 12.9348C12.6343 13.2245 12.3963 13.5727 12.2355 13.9579C12.0748 14.3432 11.9947 14.7573 12.0003 15.1747V33.5753C11.9947 33.9927 12.0748 34.4068 12.2355 34.7921C12.3963 35.1773 12.6343 35.5255 12.9348 35.8152C13.2245 36.1157 13.5727 36.3536 13.958 36.5144C14.3432 36.6751 14.7573 36.7552 15.1747 36.7497H33.5753C34.4158 36.7452 35.2206 36.4093 35.815 35.815C36.4093 35.2206 36.7452 34.4159 36.7497 33.5753V15.1747C36.7553 14.7573 36.6753 14.3433 36.5147 13.958C36.354 13.5728 36.1161 13.2246 35.8157 12.9348ZM20.8869 20.9187C21.3475 20.4618 21.8949 20.1017 22.4968 19.8596C23.0987 19.6175 23.743 19.4983 24.3917 19.509C25.0429 19.4973 25.69 19.6161 26.2947 19.8583C26.8993 20.1004 27.4494 20.4612 27.9126 20.9192C28.3735 21.3591 28.7403 21.888 28.991 22.4737C29.2417 23.0595 29.3709 23.69 29.3709 24.3271C29.3709 24.9643 29.2417 25.5948 28.991 26.1805C28.7403 26.7663 28.3735 27.2951 27.9126 27.735C27.4495 28.1931 26.8994 28.5539 26.2947 28.7961C25.69 29.0383 25.043 29.157 24.3917 29.1452C23.743 29.1558 23.0987 29.0365 22.4968 28.7944C21.8949 28.5522 21.3475 28.192 20.8869 27.735C20.4259 27.2951 20.0589 26.7663 19.8081 26.1805C19.5574 25.5947 19.4281 24.9641 19.4281 24.3269C19.4281 23.6896 19.5574 23.059 19.8081 22.4732C20.0589 21.8874 20.4259 21.3586 20.8869 20.9187ZM33.9466 32.9168C33.9495 33.0471 33.9252 33.1766 33.8753 33.2971C33.8253 33.4175 33.7509 33.5262 33.6566 33.6162C33.5658 33.7072 33.4577 33.7791 33.3387 33.8275C33.2196 33.8759 33.0921 33.9 32.9636 33.8982H15.7385C15.6087 33.9008 15.4797 33.8772 15.3592 33.8287C15.2388 33.7802 15.1294 33.7079 15.0376 33.6161C14.9458 33.5243 14.8734 33.4149 14.825 33.2945C14.7765 33.174 14.7529 33.045 14.7555 32.9152V22.4736H17.0271C16.8112 23.1563 16.7023 23.8683 16.7043 24.5843C16.6908 25.573 16.8846 26.5536 17.2734 27.4628C17.6621 28.372 18.2372 29.1896 18.9613 29.8629C19.6749 30.571 20.523 31.1289 21.4557 31.5039C22.3883 31.8789 23.3866 32.0633 24.3917 32.0463C25.746 32.0568 27.0795 31.7121 28.259 31.0466C29.4163 30.4039 30.3834 29.4673 31.0627 28.3312C31.7463 27.2018 32.1033 25.905 32.0941 24.5848C32.096 23.8688 31.9872 23.1568 31.7713 22.4741H33.9466V32.9152V32.9168ZM33.9466 18.5277C33.9482 18.6742 33.9205 18.8195 33.8652 18.9552C33.8098 19.0909 33.728 19.2141 33.6244 19.3178C33.5208 19.4214 33.3976 19.5033 33.262 19.5587C33.1263 19.6141 32.981 19.6418 32.8345 19.6403H30.0313C29.8849 19.6418 29.7397 19.6141 29.6042 19.5588C29.4686 19.5035 29.3455 19.4216 29.242 19.3181C29.1384 19.2146 29.0566 19.0915 29.0013 18.9559C28.946 18.8204 28.9182 18.6751 28.9198 18.5288V15.8676C28.9183 15.7223 28.9461 15.5782 29.0016 15.4439C29.0571 15.3096 29.139 15.1878 29.2426 15.0859C29.344 14.979 29.4665 14.8945 29.6024 14.8376C29.7383 14.7807 29.8846 14.7528 30.0319 14.7555H32.8355C32.9829 14.7527 33.1293 14.7806 33.2653 14.8375C33.4013 14.8943 33.5239 14.979 33.6254 15.0859C33.729 15.1878 33.811 15.3096 33.8664 15.4439C33.9219 15.5782 33.9497 15.7223 33.9482 15.8676V18.5261L33.9466 18.5277Z"/>
        </g>
    </symbol>

    <symbol viewBox="0 0 48 48" id="twitter">
        <g>
            <path d="M39 14.8505C37.8742 15.3361 36.6807 15.6523 35.4593 15.7885C36.7535 15.0484 37.7182 13.8569 38.1626 12.45C36.9578 13.1571 35.6369 13.6521 34.2593 13.9125C33.6946 13.3207 33.0149 12.8466 32.2605 12.5182C31.5062 12.1899 30.6925 12.0139 29.8678 12.0008C29.0431 11.9877 28.2241 12.1377 27.4594 12.4419C26.6947 12.7461 25.9998 13.1984 25.4159 13.7719C24.8346 14.3272 24.3751 14.9938 24.0656 15.7306C23.7562 16.4675 23.6033 17.2589 23.6165 18.0561C23.6193 18.522 23.6714 18.9863 23.7717 19.4416C21.3043 19.3305 18.8904 18.6953 16.6957 17.5798C14.5297 16.4906 12.6192 14.9674 11.087 13.108C10.5319 14.0333 10.2425 15.0896 10.2496 16.1641C10.242 17.1738 10.4978 18.1686 10.9924 19.0532C11.4699 19.9217 12.1562 20.6619 12.9913 21.2091C12.0155 21.1751 11.0622 20.9109 10.2117 20.4387V20.5138C10.1922 21.9217 10.6889 23.2894 11.6107 24.366C12.5029 25.4483 13.7527 26.1881 15.1422 26.4564C14.614 26.5932 14.0702 26.6624 13.5241 26.6625C13.1369 26.6592 12.7504 26.6277 12.3678 26.5681C12.7627 27.7703 13.529 28.8212 14.5597 29.574C15.5904 30.3269 16.8342 30.7441 18.1174 30.7676C15.9511 32.4696 13.2545 33.3835 10.483 33.355C9.98768 33.358 9.49254 33.3333 9 33.2812C11.8079 35.0795 15.0912 36.0248 18.4409 35.9995C20.5343 36.0143 22.6143 35.6689 24.587 34.9787C26.3795 34.3672 28.0441 33.4395 29.4991 32.2411C30.8564 31.0984 32.0394 29.7693 33.0117 28.2945C33.9722 26.8558 34.7129 25.286 35.2102 23.6354C35.6872 22.0557 35.9312 20.4168 35.9348 18.7688C35.9348 18.4187 35.9285 18.1561 35.9159 17.981C37.1199 17.1207 38.1634 16.0615 39 14.8505Z"/>
        </g>
    </symbol>

    <!-- button -->

    <symbol viewBox="0 0 56 56" id="buttonMobile">
        <g>
            <rect width="56" height="56"/>
            <path d="M16 22H41" stroke="white" stroke-width="2" stroke-linecap="round"/>
            <path d="M16 28H41" stroke="white" stroke-width="2" stroke-linecap="round"/>
            <path d="M16 34H41" stroke="white" stroke-width="2" stroke-linecap="round"/>
        </g>
    </symbol>
</svg>